# xmcd
#
# Track frame offsets: 
#        225
#        13398
#        21282
#        34344
#        45827
#        58738
#        71102
#        84376
#        108626
#        132060
#        149233
#        172331
#        181758
#        193876
#        228344
#        242980
#        257178
#        272698
#
# Disc length: 3816 seconds
#
# Revision: 1
# Processed by: cddbd v1.5.2PL0 Copyright (c) Steve Scherf et al.
# Submitted via: ExactAudioCopyFreeDBPlugin 1.0
#
DISCID=150ee512
DTITLE=Various Artist - The Best of Soul CD 1
DYEAR=2002
DGENRE=Soul
TTITLE0=SAM&DAVE - Soulman
TTITLE1=EDDIE FLOYD - Knock on wood
TTITLE2=LLOYD PRICE - Stagger lee
TTITLE3=SOLOMON BURKE - If you need me
TTITLE4=AL GREEN - Tired of being alone
TTITLE5=MARTHA REEVES - Heat Wave
TTITLE6=PERCY SLEDGE - When a man loves a woman
TTITLE7=GLORIA GAYNOR - Oh happy day
TTITLE8=BOBBY WOMACK - Thats the way I feel about cha
TTITLE9=BROOK BENTON - Rainy night in Georgia
TTITLE10=KOOL&THE GANG - Jump on the rythm and ride
TTITLE11=AL JARREAU - Ain´t no sunshine
TTITLE12=AARON NEVILLE - Tell it like it is
TTITLE13=THE REAL THING - Can you feel the force
TTITLE14=RARE EARTH - Love is here and now you´re gone
TTITLE15=THE VELVELETTES - Come see about me
TTITLE16=JOHNNY BRISTOL - Someday we´ll be together
TTITLE17=KIM WESTON - Dancing in the street
EXTD=
EXTT0=
EXTT1=
EXTT2=
EXTT3=
EXTT4=
EXTT5=
EXTT6=
EXTT7=
EXTT8=
EXTT9=
EXTT10=
EXTT11=
EXTT12=
EXTT13=
EXTT14=
EXTT15=
EXTT16=
EXTT17=
PLAYORDER=
